<?xml version="1.0" encoding="UTF-8" standalone="no"?>
<!-- Created with Inkscape (http://www.inkscape.org/) -->

<svg
   width="300"
   height="300"
   viewBox="0 0 300 300"
   version="1.1"
   id="svg5"
   inkscape:version="1.1.1 (3bf5ae0d25, 2021-09-20)"
   sodipodi:docname="mine.svg"
   xmlns:inkscape="http://www.inkscape.org/namespaces/inkscape"
   xmlns:sodipodi="http://sodipodi.sourceforge.net/DTD/sodipodi-0.dtd"
   xmlns="http://www.w3.org/2000/svg"
   xmlns:svg="http://www.w3.org/2000/svg">
  <sodipodi:namedview
     id="namedview7"
     pagecolor="#ffffff"
     bordercolor="#999999"
     borderopacity="1"
     inkscape:pageshadow="0"
     inkscape:pageopacity="0"
     inkscape:pagecheckerboard="0"
     inkscape:document-units="px"
     showgrid="false"
     inkscape:zoom="1.5866667"
     inkscape:cx="153.78151"
     inkscape:cy="164.4958"
     inkscape:window-width="1356"
     inkscape:window-height="698"
     inkscape:window-x="5"
     inkscape:window-y="35"
     inkscape:window-maximized="0"
     inkscape:current-layer="layer1" />
  <defs
     id="defs2" />
  <g
     inkscape:label="Layer 1"
     inkscape:groupmode="layer"
     id="layer1">
    <path
       id="path70425"
       style="fill:#0271f3;fill-opacity:1;stroke-width:1.11331"
       d="m 65.095765,196.60073 c 9.552093,-6.85108 16.395888,-17.27505 18.349664,-29.11881 a 31.375337,31.90708 38.885282 0 0 2.03981,-1.30439 31.375337,31.90708 38.885282 0 0 8.357625,-44.16797 31.375337,31.90708 38.885282 0 0 -43.879342,-7.66486 31.375337,31.90708 38.885282 0 0 -5.35709,4.8152 c -1.357902,-0.017 -2.729148,0.0395 -4.111948,0.17406 -19.417928,1.89095 -35.0182736,19.45032 -32.9378574,39.39721 l 16.9554084,-0.4371 c -1.641681,-8.93978 3.92208,-17.18781 11.809384,-20.50735 a 31.375337,31.90708 38.885282 0 0 3.724731,18.05714 c -0.202503,0.98379 0.02727,1.90164 1.164656,1.996 a 31.375337,31.90708 38.885282 0 0 0.01426,0.0234 l -16.713043,0.43085 c 1.460932,7.95551 9.104177,14.37641 17.280241,12.40295 2.784163,-0.67201 5.32547,-2.46394 6.919972,-4.82336 a 31.375337,31.90708 38.885282 0 0 15.792404,5.96375 C 60.423743,180.36416 51.974573,186.66921 42.225143,187.81853 24.782576,189.8748 9.3585666,176.00821 7.556624,158.73128 l -16.9542346,0.43628 c 2.072902,26.60202 25.3718816,48.02298 52.0556196,45.77239 8.262136,-0.69685 15.968547,-3.69919 22.437749,-8.33911 z"
       inkscape:export-filename="/home/nafl-ha/LineageOS/Framework/nextjs-blog/public/black.png"
       inkscape:export-xdpi="96"
       inkscape:export-ydpi="96" />
    <text
       xml:space="preserve"
       style="font-style:normal;font-variant:normal;font-weight:bold;font-stretch:normal;font-size:68.4974px;line-height:0;font-family:'RobotoMono Nerd Font';-inkscape-font-specification:'RobotoMono Nerd Font Bold';letter-spacing:0px;stroke-width:1.30682"
       x="46.294754"
       y="162.464"
       id="text1310"
       transform="scale(0.98523806,1.0149831)"
       inkscape:export-filename="/home/nafl-ha/LineageOS/Framework/nextjs-blog/public/black.png"
       inkscape:export-xdpi="96"
       inkscape:export-ydpi="96"><tspan
         sodipodi:role="line"
         id="tspan1308"
         x="46.294754"
         y="162.464"
         style="font-style:normal;font-variant:normal;font-weight:500;font-stretch:normal;font-size:68.4974px;line-height:1.35;font-family:Barlow;-inkscape-font-specification:'Barlow Medium';stroke-width:1.30682"><tspan
           style="font-style:normal;font-variant:normal;font-weight:normal;font-stretch:normal;font-size:74.6667px;line-height:1.35;font-family:'RobotoMono Nerd Font Mono';-inkscape-font-specification:'RobotoMono Nerd Font Mono';fill:#ffffff;stroke-width:1.30682"
           id="tspan72983">N</tspan><tspan
           style="font-style:normal;font-variant:normal;font-weight:500;font-stretch:normal;font-size:68.4974px;line-height:1.35;font-family:'RobotoMono Nerd Font';-inkscape-font-specification:'RobotoMono Nerd Font Medium';stroke-width:1.30682"
           id="tspan86888">flhha</tspan></tspan><tspan
         sodipodi:role="line"
         x="46.294754"
         y="211.32169"
         style="font-style:normal;font-variant:normal;font-weight:bold;font-stretch:normal;font-size:68.4974px;line-height:1.25;font-family:'RobotoMono Nerd Font';-inkscape-font-specification:'RobotoMono Nerd Font Bold';stroke-width:1.30682"
         id="tspan10216" /></text>
    <text
       xml:space="preserve"
       style="font-size:53.3333px;line-height:1.25;font-family:sans-serif"
       x="125.70189"
       y="65.723801"
       id="text40394"><tspan
         sodipodi:role="line"
         id="tspan40392"
         x="125.70189"
         y="65.723801" /></text>
    <text
       xml:space="preserve"
       style="font-size:53.3333px;line-height:1.25;font-family:'JetBrainsMonoMedium NF';-inkscape-font-specification:'JetBrainsMonoMedium NF'"
       x="-45.006187"
       y="151.66554"
       id="text66067"><tspan
         sodipodi:role="line"
         id="tspan66065"
         x="-45.006187"
         y="151.66554" /></text>
  </g>
</svg>
